<svg width="39" height="40" viewBox="0 0 39 40" fill="none" xmlns="http://www.w3.org/2000/svg">
<path d="M0 20.1196C0 9.35421 8.67225 0.664062 19.4155 0.664062C30.1587 0.664062 38.831 9.35421 38.831 20.1196C38.831 30.885 30.1587 39.5752 19.4155 39.5752C8.67225 39.5752 0 30.885 0 20.1196Z" fill="#FFDD00"/>
<path d="M28.4759 9.74414L27.5051 13.4407H31.1941L32.1648 9.74414H28.4759Z" fill="#EF5191"/>
<path d="M18.3153 13.4395H14.6263L13.5908 17.136H17.3445L18.3153 13.4395Z" fill="#EF5191"/>
<path d="M26.5346 17.136L27.5054 13.4395H23.8165L22.8457 17.136H26.5346Z" fill="#EF5191"/>
<path d="M13.6556 17.1367H9.96664L8.93115 20.8333H12.6201L13.6556 17.1367Z" fill="#EF5191"/>
<path d="M21.9394 17.136L22.9102 13.4395H19.2213L18.2505 17.136H21.9394Z" fill="#EF5191"/>
<path d="M21.7454 18.0449H18.0565L17.021 21.7415H20.7747L21.7454 18.0449Z" fill="#EF5191"/>
<path d="M26.5346 17.136L27.5054 13.4395H23.8165L22.8457 17.136H26.5346Z" fill="#EF5191"/>
<path d="M11.261 26.2805H14.9499L15.9854 22.584H12.2965L11.261 26.2805Z" fill="#EF5191"/>
<path d="M25.1756 22.584H21.4866L20.5159 26.2805H24.2048L25.1756 22.584Z" fill="#EF5191"/>
<path d="M6.60132 29.9778H10.2903L11.261 26.2812H7.63681L6.60132 29.9778Z" fill="#EF5191"/>
<path d="M23.1692 29.9778H26.8581L27.8289 26.2812H24.14L23.1692 29.9778Z" fill="#EF5191"/>
<path d="M24.8518 9.54804C24.8518 11.2342 23.4927 12.5961 21.8101 12.5961C20.1274 12.5961 18.7683 11.2342 18.7683 9.54804C18.7683 7.86189 20.1274 6.5 21.8101 6.5C23.4927 6.5 24.8518 7.86189 24.8518 9.54804Z" fill="#EF5191"/>
</svg>
