<svg width="16" height="17" viewBox="0 0 16 17" fill="none" xmlns="http://www.w3.org/2000/svg">
<path fill-rule="evenodd" clip-rule="evenodd" d="M14.666 11.113C15.3999 11.113 16 11.6978 16 12.4192C16 13.139 15.4016 13.7253 14.6634 13.7253H1.33663C0.598018 13.7253 0 13.1405 0 12.4192C0 11.6993 0.597265 11.113 1.33403 11.113C1.70058 11.113 2 10.8204 2 10.4594V6.54137C2 3.29403 4.68629 0.664062 8 0.664062C11.3144 0.664062 14 3.29542 14 6.54137V10.4594C14 10.8227 14.2982 11.113 14.666 11.113ZM5.66667 14.3783H10.3333C10.3333 15.6407 9.28866 16.6641 8 16.6641C6.71134 16.6641 5.66667 15.6407 5.66667 14.3783Z" fill="#AFB6C7"/>
</svg>
